<?xml version="1.0" encoding="UTF-8"?>
<svg id="PRINT" xmlns="http://www.w3.org/2000/svg" viewBox="0 0 500 364.28">
  <defs>
    <style>
      .cls-1 {
        fill: #fff;
      }

      .cls-1, .cls-2, .cls-3 {
        stroke-width: 0px;
      }

      .cls-2 {
        fill: #192f7f;
      }

      .cls-3 {
        fill: #ffb32c;
      }
    </style>
  </defs>
  <g>
    <path class="cls-3" d="m49.72,266.25c.19-11.04,8.61-18.69,20.27-18.48,7.17.12,12.85,3.19,15.58,8.83l-6.69,3.75c-2.15-3.56-5.43-5.2-9.09-5.27-6.35-.11-11.25,4.22-11.38,11.33-.12,7.17,4.63,11.61,10.97,11.72,3.66.06,7-1.46,9.26-4.94l6.55,3.98c-2.92,5.47-8.7,8.47-15.88,8.35-11.66-.2-19.8-8.21-19.61-19.25Z"/>
    <path class="cls-3" d="m93.39,236.79c.05-2.9,2.44-5.13,5.61-5.08,3.17.06,5.48,2.24,5.43,5.06-.05,3.04-2.37,5.34-5.61,5.29-3.17-.06-5.48-2.37-5.43-5.27Zm.98,11.26l8.62.15-.64,36.84-8.62-.15.64-36.84Z"/>
    <path class="cls-3" d="m151.17,248.44l-.64,36.84-8.21-.14.08-4.69c-2.82,3.33-7.2,5.05-11.96,4.97-9.45-.17-15.78-5.45-15.58-16.56l.37-21.04,8.62.15-.35,19.87c-.12,6.69,3,9.92,8.45,10.02,6,.1,10.14-3.55,10.27-10.93l.33-18.63,8.62.15Z"/>
    <path class="cls-3" d="m200.02,234.1l-.89,51.19-8.28-.14.08-4.76c-2.96,3.47-7.27,5.12-12.3,5.03-10.69-.19-18.5-7.78-18.3-19.23s8.26-18.69,18.96-18.51c4.76.08,8.94,1.74,11.78,5.17l.33-18.9,8.62.15Zm-9.06,32.62c.12-7.04-4.56-11.6-10.77-11.71-6.21-.11-11.05,4.29-11.17,11.33-.12,7.04,4.56,11.6,10.77,11.71,6.21.11,11.05-4.29,11.17-11.33Z"/>
    <path class="cls-3" d="m242.86,263.65l-.38,21.59-8.14-.14.08-4.48c-2.12,3.14-6.16,4.86-11.68,4.76-8.42-.15-13.65-4.86-13.54-11.28.11-6.14,4.33-10.9,15.51-10.7l9.52.17v-.55c.1-5.04-2.89-8.06-9.03-8.16-4.14-.07-8.44,1.23-11.24,3.46l-3.27-6.34c3.99-2.97,9.74-4.38,15.67-4.28,10.62.19,16.68,5.33,16.49,15.95Zm-8.8,9.92l.07-4.28-8.9-.16c-5.86-.1-7.49,2.08-7.54,4.77-.05,3.1,2.53,5.15,6.95,5.23,4.21.07,7.9-1.79,9.41-5.56Z"/>
    <path class="cls-3" d="m291.7,234.1l-.89,51.19-8.28-.14.08-4.76c-2.96,3.47-7.27,5.12-12.3,5.03-10.69-.19-18.5-7.78-18.3-19.23s8.26-18.69,18.96-18.51c4.76.08,8.94,1.74,11.78,5.17l.33-18.9,8.62.15Zm-9.06,32.62c.12-7.04-4.56-11.6-10.77-11.71s-11.05,4.29-11.17,11.33c-.12,7.04,4.56,11.6,10.77,11.71,6.21.11,11.05-4.29,11.17-11.33Z"/>
    <path class="cls-3" d="m334.54,263.65l-.38,21.59-8.14-.14.08-4.48c-2.12,3.14-6.16,4.86-11.68,4.76-8.42-.15-13.65-4.86-13.54-11.28.11-6.14,4.33-10.9,15.51-10.7l9.52.17v-.55c.1-5.04-2.89-8.06-9.03-8.16-4.14-.07-8.44,1.23-11.24,3.46l-3.27-6.34c3.99-2.97,9.74-4.38,15.67-4.28,10.62.19,16.67,5.33,16.49,15.95Zm-8.8,9.92l.07-4.28-8.9-.16c-5.86-.1-7.49,2.08-7.54,4.77-.05,3.1,2.53,5.15,6.95,5.23,4.21.07,7.9-1.79,9.41-5.56Z"/>
    <path class="cls-3" d="m383.06,264.18l-.37,21.11-8.62-.15.35-20.01c.11-6.55-3.07-9.78-8.59-9.88-6.14-.11-10.34,3.55-10.47,10.93l-.33,18.63-8.62-.15.64-36.84,8.21.14-.08,4.76c2.89-3.33,7.4-5.05,12.78-4.95,8.83.15,15.29,5.3,15.1,16.41Z"/>
    <path class="cls-3" d="m403.63,233.71l10.14.18-12.17,9.24-7.45-.13,9.48-9.29Zm-8.12,14.35l8.62.15-.64,36.84-8.62-.15.64-36.84Z"/>
    <path class="cls-3" d="m447.22,263.65l-.38,21.59-8.14-.14.08-4.48c-2.12,3.14-6.16,4.86-11.68,4.76-8.42-.15-13.65-4.86-13.54-11.28.11-6.14,4.33-10.9,15.51-10.7l9.52.17v-.55c.1-5.04-2.89-8.06-9.03-8.16-4.14-.07-8.44,1.23-11.24,3.46l-3.27-6.34c3.98-2.97,9.74-4.38,15.67-4.28,10.62.19,16.67,5.33,16.49,15.95Zm-8.8,9.92l.07-4.28-8.9-.16c-5.86-.1-7.49,2.08-7.54,4.77-.05,3.1,2.53,5.15,6.95,5.23,4.21.07,7.9-1.79,9.41-5.56Z"/>
  </g>
  <g>
    <path class="cls-2" d="m80.42,208.02v12.52h-7.51c-5.35,0-9.53-1.31-12.52-3.93-2.99-2.62-4.49-6.89-4.49-12.83v-19.17h-5.87v-12.26h5.87v-11.75h14.77v11.75h9.67v12.26h-9.67v19.35c0,1.44.35,2.48,1.04,3.11.69.63,1.84.95,3.46.95h5.27Z"/>
    <path class="cls-2" d="m138.11,199.99h-33.42c.23,2.99,1.19,5.28,2.89,6.87,1.7,1.58,3.79,2.38,6.26,2.38,3.68,0,6.25-1.55,7.69-4.66h15.72c-.81,3.17-2.26,6.02-4.36,8.55-2.1,2.53-4.74,4.52-7.9,5.96-3.17,1.44-6.71,2.16-10.62,2.16-4.72,0-8.93-1.01-12.61-3.02-3.69-2.01-6.56-4.89-8.64-8.64-2.07-3.74-3.11-8.12-3.11-13.13s1.02-9.38,3.07-13.13c2.04-3.74,4.91-6.62,8.59-8.64,3.68-2.02,7.92-3.02,12.7-3.02s8.81.98,12.44,2.94c3.63,1.96,6.46,4.75,8.51,8.38,2.04,3.63,3.07,7.86,3.07,12.7,0,1.38-.09,2.82-.26,4.32Zm-14.86-8.21c0-2.53-.86-4.55-2.59-6.05-1.73-1.5-3.89-2.25-6.48-2.25s-4.56.72-6.26,2.16c-1.7,1.44-2.75,3.48-3.15,6.13h18.48Z"/>
    <path class="cls-2" d="m150.33,183.32c1.87-3.74,4.42-6.62,7.64-8.64,3.22-2.02,6.82-3.02,10.8-3.02,3.4,0,6.38.69,8.94,2.07,2.56,1.38,4.53,3.2,5.92,5.44v-6.82h14.77v48.19h-14.77v-6.82c-1.44,2.25-3.44,4.06-6,5.44-2.56,1.38-5.54,2.07-8.94,2.07-3.92,0-7.49-1.02-10.71-3.07-3.23-2.04-5.77-4.95-7.64-8.72-1.87-3.77-2.81-8.13-2.81-13.08s.94-9.3,2.81-13.04Zm30.23,4.41c-2.04-2.13-4.53-3.2-7.47-3.2s-5.43,1.05-7.47,3.15c-2.04,2.1-3.07,5-3.07,8.68s1.02,6.61,3.07,8.77c2.04,2.16,4.53,3.24,7.47,3.24s5.43-1.07,7.47-3.2c2.04-2.13,3.07-5.04,3.07-8.72s-1.02-6.59-3.07-8.72Z"/>
    <path class="cls-2" d="m262.65,172.35l-30.23,71.08h-15.89l11.06-24.53-19.61-46.55h16.5l11.14,30.14,11.06-30.14h15.98Z"/>
    <path class="cls-2" d="m319.92,172.35v48.19h-14.77v-6.56c-1.5,2.13-3.53,3.84-6.09,5.14-2.56,1.29-5.4,1.94-8.51,1.94-3.69,0-6.94-.82-9.76-2.46-2.82-1.64-5.01-4.02-6.56-7.12-1.55-3.11-2.33-6.77-2.33-10.97v-28.16h14.68v26.17c0,3.23.83,5.73,2.5,7.51,1.67,1.79,3.92,2.68,6.74,2.68s5.15-.89,6.82-2.68c1.67-1.78,2.5-4.29,2.5-7.51v-26.17h14.77Z"/>
    <path class="cls-2" d="m334.73,183.32c1.87-3.74,4.42-6.62,7.64-8.64,3.22-2.02,6.82-3.02,10.8-3.02,3.17,0,6.06.66,8.68,1.99,2.62,1.33,4.68,3.11,6.17,5.35v-22.37h14.77v63.91h-14.77v-6.91c-1.38,2.3-3.35,4.15-5.92,5.53-2.56,1.38-5.54,2.07-8.94,2.07-3.97,0-7.57-1.02-10.8-3.07-3.23-2.04-5.77-4.95-7.64-8.72-1.87-3.77-2.81-8.13-2.81-13.08s.94-9.3,2.81-13.04Zm30.23,4.41c-2.04-2.13-4.53-3.2-7.47-3.2s-5.43,1.05-7.47,3.15c-2.04,2.1-3.07,5-3.07,8.68s1.02,6.61,3.07,8.77c2.04,2.16,4.53,3.24,7.47,3.24s5.43-1.07,7.47-3.2c2.04-2.13,3.07-5.04,3.07-8.72s-1.02-6.59-3.07-8.72Z"/>
    <path class="cls-2" d="m407.02,218.22c-3.77-2.01-6.74-4.89-8.9-8.64-2.16-3.74-3.24-8.12-3.24-13.13s1.09-9.31,3.28-13.08c2.19-3.77,5.18-6.66,8.98-8.68,3.8-2.02,8.06-3.02,12.78-3.02s8.98,1.01,12.78,3.02c3.8,2.02,6.79,4.91,8.98,8.68,2.19,3.77,3.28,8.13,3.28,13.08s-1.11,9.31-3.33,13.08c-2.22,3.77-5.24,6.67-9.07,8.68-3.83,2.02-8.1,3.02-12.83,3.02s-8.97-1.01-12.74-3.02Zm19.95-12.87c1.99-2.07,2.98-5.04,2.98-8.9s-.96-6.82-2.89-8.9c-1.93-2.07-4.3-3.11-7.12-3.11s-5.27,1.02-7.17,3.07c-1.9,2.04-2.85,5.02-2.85,8.94s.94,6.82,2.81,8.9c1.87,2.07,4.22,3.11,7.04,3.11s5.22-1.04,7.21-3.11Z"/>
  </g>
  <g id="CUSTOM-group">
    <circle class="cls-2" cx="242" cy="100.39" r="58.93" transform="translate(-.11 200.52) rotate(-45)"/>
    <g>
      <ellipse class="cls-2" cx="218.84" cy="122.37" rx="14.11" ry="5.75"/>
      <path class="cls-3" d="m218.84,68.52c-11.32,0-20.5,9.18-20.5,20.5,0,17.24,20.5,33.11,20.5,33.11,0,0,20.5-15.87,20.5-33.11,0-11.32-9.18-20.5-20.5-20.5Zm0,28.68c-4.52,0-8.18-3.66-8.18-8.18s3.66-8.18,8.18-8.18,8.18,3.66,8.18,8.18-3.66,8.18-8.18,8.18Z"/>
      <ellipse class="cls-2" cx="268.83" cy="83.17" rx="10.85" ry="4.42"/>
      <path class="cls-3" d="m268.83,41.79c-8.7,0-15.76,7.05-15.76,15.76,0,13.25,15.76,25.45,15.76,25.45,0,0,15.76-12.19,15.76-25.45,0-8.7-7.05-15.76-15.76-15.76Zm0,22.04c-3.47,0-6.28-2.81-6.28-6.28s2.81-6.28,6.28-6.28,6.28,2.81,6.28,6.28-2.81,6.28-6.28,6.28Z"/>
      <path class="cls-1" d="m218.84,67.22c-12.02,0-21.81,9.78-21.81,21.81,0,7.47,3.55,15.49,10.56,23.86,1.04,1.24,2.08,2.39,3.07,3.45-4.52,1.23-7.24,3.45-7.24,6.04,0,4.58,7.94,7.05,15.42,7.05s15.42-2.47,15.42-7.05c0-2.59-2.71-4.8-7.23-6.04,1.81-1.91,3.75-4.15,5.59-6.65.43-.58.3-1.4-.28-1.82-.58-.43-1.4-.3-1.82.28-2.23,3.02-4.63,5.67-6.74,7.78-.24.12-.44.32-.57.56-1.88,1.85-3.47,3.22-4.37,3.97-.89-.74-2.45-2.1-4.31-3.92-.13-.29-.37-.52-.65-.65-5.91-5.94-14.24-16.21-14.24-26.85s8.61-19.2,19.2-19.2,19.2,8.61,19.2,19.2c0,4.62-1.58,9.62-4.68,14.84-.37.62-.16,1.42.45,1.79s1.42.16,1.79-.45c3.35-5.63,5.05-11.07,5.05-16.17,0-12.02-9.78-21.81-21.81-21.81Zm0,56.22c.28,0,.56-.09.8-.27.16-.12,2.34-1.82,5.24-4.66,4.4.9,6.76,2.62,6.76,3.87,0,.93-1.27,2.02-3.32,2.86-2.51,1.02-5.88,1.59-9.49,1.59-7.82,0-12.81-2.63-12.81-4.45,0-1.24,2.37-2.97,6.77-3.87,2.92,2.86,5.1,4.56,5.24,4.66.24.18.52.27.8.27Z"/>
      <path class="cls-1" d="m211.34,85.51c-.69-.2-1.41.2-1.61.89-.24.85-.37,1.73-.37,2.62,0,5.23,4.25,9.48,9.48,9.48s9.48-4.25,9.48-9.48-4.25-9.48-9.48-9.48c-2.06,0-4.02.65-5.67,1.88-.58.43-.69,1.25-.26,1.83.43.58,1.25.69,1.83.26,1.19-.89,2.61-1.36,4.11-1.36,3.79,0,6.87,3.08,6.87,6.87s-3.08,6.87-6.87,6.87-6.87-3.08-6.87-6.87c0-.65.09-1.29.27-1.9.2-.69-.2-1.41-.89-1.61Z"/>
      <path class="cls-1" d="m280.98,83.17c0-2.07-1.94-3.79-5.3-4.8.66-.71,1.35-1.48,2.03-2.3,5.43-6.49,8.18-12.72,8.18-18.53,0-9.41-7.65-17.06-17.06-17.06-6.87,0-13.04,4.09-15.72,10.42-.28.66.03,1.43.69,1.71s1.43-.03,1.71-.69c2.27-5.36,7.5-8.83,13.32-8.83,7.97,0,14.45,6.48,14.45,14.45,0,10.78-11.32,21.1-14.45,23.76-.69-.58-1.78-1.54-3.06-2.79-.13-.25-.33-.45-.58-.58-4.5-4.53-10.82-12.33-10.82-20.39,0-.72-.58-1.3-1.3-1.3s-1.3.58-1.3,1.3c0,5.81,2.75,12.05,8.18,18.53.69.82,1.37,1.59,2.03,2.3-3.36,1.01-5.3,2.73-5.3,4.8,0,1.75,1.42,3.28,3.99,4.33,2.2.9,5.1,1.39,8.16,1.39s5.96-.49,8.16-1.39c2.57-1.05,3.99-2.59,3.99-4.33Zm-12.15,3.12c-6.17,0-9.54-2.06-9.54-3.12,0-.69,1.53-1.95,4.8-2.65,2.2,2.14,3.83,3.41,3.94,3.5.23.18.52.27.8.27s.56-.09.8-.27c.11-.08,1.74-1.35,3.94-3.5,1.46.31,2.72.77,3.6,1.3.75.46,1.2.96,1.2,1.34,0,1.06-3.37,3.12-9.54,3.12Z"/>
      <path class="cls-1" d="m276.42,57.54c0-4.18-3.4-7.59-7.59-7.59s-7.59,3.4-7.59,7.59,3.4,7.59,7.59,7.59,7.59-3.4,7.59-7.59Zm-12.57,0c0-2.75,2.23-4.98,4.98-4.98s4.98,2.23,4.98,4.98-2.23,4.98-4.98,4.98-4.98-2.23-4.98-4.98Z"/>
      <path class="cls-3" d="m251.91,84.48c.72,0,1.3-.58,1.3-1.3s-.58-1.3-1.3-1.3h-.6c-.43,0-.87.03-1.3.09-.71.1-1.22.75-1.12,1.46.09.66.65,1.13,1.29,1.13.06,0,.12,0,.17-.01.31-.04.63-.06.95-.06h.6Z"/>
      <path class="cls-3" d="m247.6,121h-1.73c-.72.01-1.3.6-1.3,1.32,0,.72.59,1.3,1.3,1.3h1.73c.72-.01,1.3-.6,1.3-1.32,0-.72-.59-1.3-1.3-1.3Z"/>
      <path class="cls-3" d="m253.46,101.37c.72,0,1.3-.58,1.3-1.3s-.58-1.3-1.3-1.3h-1.72c-.72,0-1.3.58-1.3,1.3s.58,1.3,1.3,1.3h1.72Z"/>
      <path class="cls-3" d="m243.69,87.76c.23.17.5.24.76.24.41,0,.81-.19,1.06-.54.28-.39.61-.76.96-1.09.53-.49.56-1.31.07-1.84-.49-.53-1.31-.56-1.84-.07-.49.45-.93.95-1.31,1.49-.42.59-.29,1.4.3,1.82Z"/>
      <path class="cls-3" d="m254.49,120.96h-1.73c-.72.01-1.3.6-1.3,1.32,0,.72.59,1.3,1.3,1.3h1.73c.72-.01,1.3-.6,1.3-1.32,0-.72-.59-1.3-1.3-1.3Z"/>
      <path class="cls-3" d="m240.71,121.03h-1.73c-.72.01-1.3.6-1.3,1.32,0,.72.59,1.3,1.3,1.3h1.73c.72-.01,1.3-.6,1.3-1.32,0-.72-.59-1.3-1.3-1.3Z"/>
      <path class="cls-3" d="m246.81,100.07c.43,0,.86-.22,1.1-.61.38-.61.2-1.41-.41-1.8-.41-.26-.8-.56-1.15-.9-.52-.5-1.35-.48-1.84.04-.5.52-.48,1.34.04,1.84.48.46,1,.87,1.56,1.22.22.14.46.2.69.2Z"/>
      <path class="cls-3" d="m244.31,92.99c-.09-.45-.13-.91-.13-1.37v-.07c0-.72-.57-1.31-1.29-1.32,0,0-.01,0-.02,0-.71,0-1.3.57-1.3,1.29v.1c0,.63.06,1.26.18,1.87.12.62.67,1.05,1.28,1.05.08,0,.17,0,.25-.02.71-.14,1.17-.82,1.03-1.53Z"/>
      <path class="cls-3" d="m260.35,101.37c.72,0,1.3-.58,1.3-1.3s-.58-1.3-1.3-1.3h-1.72c-.72,0-1.3.58-1.3,1.3s.58,1.3,1.3,1.3h1.72Z"/>
      <path class="cls-3" d="m280.48,103.74c.39,0,.77-.17,1.02-.5.45-.57.35-1.39-.22-1.83-.5-.4-1.04-.76-1.6-1.07-.63-.35-1.42-.13-1.78.5-.35.63-.13,1.42.5,1.78.44.25.86.53,1.26.85.24.19.52.28.81.28Z"/>
      <path class="cls-3" d="m274.98,120.79c-.43.06-.86.09-1.3.09h-.24c-.72,0-1.3.59-1.3,1.31,0,.72.59,1.3,1.3,1.3h.25c.55,0,1.1-.04,1.65-.12.71-.1,1.21-.76,1.11-1.47-.1-.71-.76-1.21-1.47-1.11Z"/>
      <path class="cls-3" d="m280.36,118.19c-.37.35-.76.67-1.18.96-.59.41-.74,1.22-.33,1.82.25.37.66.56,1.07.56.26,0,.52-.08.74-.23.53-.36,1.03-.77,1.49-1.21.52-.5.54-1.32.04-1.84-.5-.52-1.32-.54-1.84-.04Z"/>
      <path class="cls-3" d="m284.74,111.9c-.71-.13-1.39.33-1.52,1.04-.09.5-.23.99-.4,1.46-.24.68.11,1.42.79,1.67.14.05.29.08.44.08.54,0,1.04-.33,1.23-.87.21-.6.38-1.23.5-1.86.13-.71-.33-1.39-1.04-1.52Z"/>
      <path class="cls-3" d="m283.11,105.27c-.65.3-.93,1.08-.63,1.73.21.46.39.94.53,1.42.16.57.69.94,1.25.94.12,0,.24-.02.36-.05.69-.2,1.09-.92.89-1.61-.18-.62-.4-1.22-.67-1.8-.3-.65-1.08-.93-1.73-.63Z"/>
      <path class="cls-3" d="m267.24,101.37c.72,0,1.3-.58,1.3-1.3s-.58-1.3-1.3-1.3h-1.72c-.72,0-1.3.58-1.3,1.3s.58,1.3,1.3,1.3h1.72Z"/>
      <path class="cls-3" d="m261.38,120.93h-1.73c-.72.01-1.3.6-1.3,1.32,0,.72.59,1.3,1.3,1.3h1.73c.72-.01,1.3-.6,1.3-1.32,0-.72-.59-1.3-1.3-1.3Z"/>
      <path class="cls-3" d="m273.63,101.37c.15,0,.29,0,.44,0,.02,0,.04,0,.06,0,.69,0,1.27-.55,1.3-1.25.03-.72-.53-1.33-1.24-1.36-.18,0-.37-.01-.56-.01h-1.22c-.72,0-1.3.58-1.3,1.3s.58,1.3,1.3,1.3h1.22Z"/>
      <path class="cls-3" d="m268.27,120.9h-1.73c-.72.01-1.3.6-1.3,1.32,0,.72.59,1.3,1.3,1.3h1.73c.72-.01,1.3-.6,1.3-1.32,0-.72-.59-1.3-1.3-1.3Z"/>
    </g>
  </g>
</svg>